<?xml version="1.0" standalone="no"?>
<!DOCTYPE svg PUBLIC "-//W3C//DTD SVG 20010904//EN"
 "http://www.w3.org/TR/2001/REC-SVG-20010904/DTD/svg10.dtd">
<svg version="1.0" xmlns="http://www.w3.org/2000/svg"
 width="2048.000000pt" height="2048.000000pt" viewBox="0 0 2048.000000 2048.000000"
 preserveAspectRatio="xMidYMid meet">

<g transform="translate(0.000000,2048.000000) scale(0.100000,-0.100000)"
fill="#000000" stroke="none">
<path d="M0 10240 l0 -10240 10240 0 10240 0 0 10240 0 10240 -10240 0 -10240
0 0 -10240z m8000 7520 l0 -160 320 0 320 0 0 -160 0 -160 160 0 160 0 0 -160
0 -160 160 0 160 0 0 -320 0 -320 160 0 160 0 0 -1920 0 -1920 -160 0 -160 0
0 -160 0 -160 640 0 640 0 0 160 0 160 1120 0 1120 0 0 -160 0 -160 480 0 480
0 0 -160 0 -160 320 0 320 0 0 -160 0 -160 160 0 160 0 0 -160 0 -160 320 0
320 0 0 -160 0 -160 160 0 160 0 0 -160 0 -160 160 0 160 0 0 -160 0 -160 160
0 160 0 0 -320 0 -320 160 0 160 0 0 -320 0 -320 160 0 160 0 0 -320 0 -320
160 0 160 0 0 -320 0 -320 160 0 160 0 0 -320 0 -320 160 0 160 0 0 -320 0
-320 160 0 160 0 0 -1280 0 -1280 -160 0 -160 0 0 -320 0 -320 -160 0 -160 0
0 -160 0 -160 -160 0 -160 0 0 -160 0 -160 -320 0 -320 0 0 -160 0 -160 -960
0 -960 0 0 160 0 160 -320 0 -320 0 0 160 0 160 -160 0 -160 0 0 160 0 160
-160 0 -160 0 0 320 0 320 -160 0 -160 0 0 480 0 480 -160 0 -160 0 0 320 0
320 -160 0 -160 0 0 320 0 320 -160 0 -160 0 0 320 0 320 -160 0 -160 0 0 160
0 160 -480 0 -480 0 0 -160 0 -160 -160 0 -160 0 0 -160 0 -160 -160 0 -160 0
0 -160 0 -160 -160 0 -160 0 0 -320 0 -320 -160 0 -160 0 0 -320 0 -320 -160
0 -160 0 0 -640 0 -640 -160 0 -160 0 0 -320 0 -320 -160 0 -160 0 0 -160 0
-160 -160 0 -160 0 0 -160 0 -160 -320 0 -320 0 0 -160 0 -160 -960 0 -960 0
0 160 0 160 -320 0 -320 0 0 160 0 160 -160 0 -160 0 0 160 0 160 -160 0 -160
0 0 320 0 320 -160 0 -160 0 0 640 0 640 -160 0 -160 0 0 2720 0 2720 160 0
160 0 0 1920 0 1920 160 0 160 0 0 1120 0 1120 160 0 160 0 0 320 0 320 160 0
160 0 0 160 0 160 160 0 160 0 0 160 0 160 320 0 320 0 0 160 0 160 960 0 960
0 0 -160z"/>
</g>
</svg>
